<?xml version="1.0" encoding="UTF-8"?>
<svg version="1.1" viewBox="21 54 530 160" width="530" height="160" xmlns="http://www.w3.org/2000/svg">
   <g aria-label="KuB">
      <polygon points="48.738,124.614 49.523,151.947 77.5,152.193 51.411,121.783" />
      <polygon points="47.675,87.594 48.263,108.042 68.708,85.846" />
      <path d="M87.204,84.309l-26.533,28.14l35.135,39.905l12.415,0.108c-1.236-1.474-2.224-3.046-2.924-4.733 c-1.146-2.57-1.792-6.415-1.938-11.54l-0.929-32.344l12.903-0.37l0.919,32.057c0.264,9.253,4.048,13.775,11.352,13.564 c7.299-0.209,10.819-4.94,10.555-14.193l-0.921-32.055l12.903-0.37l0.929,32.342c0.128,4.474-0.316,8.352-1.33,11.633 c-0.766,2.273-2.017,4.385-3.73,6.342l17.294,0.151l-2.146-74.788L87.204,84.309z" />
      <path d="M202.982,153.292l20.405,0.986l-0.049-82.201l-25.107,2.997c2.229,2.078,4.067,4.599,5.474,7.613 c1.59,3.359,2.435,6.781,2.536,10.258c0.18,6.348-2.093,11.788-6.822,16.325c4.749,1.47,8.539,4.174,11.367,8.11 c2.867,3.896,4.376,8.481,4.528,13.758c0.197,6.924-2.083,12.841-6.837,17.76C206.785,150.689,204.944,152.127,202.982,153.292z" />
      <path d="M190.351,103.39c2.27-2.284,3.339-5.567,3.221-9.851c-0.121-4.167-1.398-7.287-3.827-9.361 c-2.437-2.111-5.908-3.101-10.418-2.972l-4.704,0.136l0.74,25.748l4.186-0.121C184.519,106.827,188.118,105.634,190.351,103.39z" />
      <path d="M197.529,121.492c-2.865-2.481-7.89-3.618-15.078-3.414l-6.767,0.193l0.77,26.782l8.258-0.237 c6.038-0.172,10.441-1.485,13.202-3.938c2.909-2.645,4.306-5.937,4.192-9.875C201.999,127.18,200.471,124.011,197.529,121.492z" />
      <polygon points="32.376,88.843 34.187,151.838 36.355,151.859 34.542,88.667" />
   </g>
   <g transform="translate(227,109)" aria-label="Kontakt- und Beratungsstelle ">
      <path d="M 8.782,-20.73 24.27,-36.32 H 29.7 L 12.67,-19.4 30.26,0 H 24.7 L 9.82,-16.66 8.782,-15.65 V 0 H 4.71 v -36.32 h 4.072 z m 34.838,-2.42 q 5.13,0 8.67,3.88 3.06,3.36 3.06,8.01 0,5.432 -3.96,8.945 -3.36,2.9803 -7.96,2.9803 -5.59,0 -9.15,-4.1513 -2.83,-3.326 -2.83,-7.854 0,-5.08 3.73,-8.59 3.41,-3.22 8.44,-3.22 z m -0.4,3.51 q -3.73,0 -6.02,2.93 -1.78,2.26 -1.78,5.48 0,3.779 2.37,6.147 2.23,2.236 5.59,2.236 3.91,0 6.25,-2.901 1.76,-2.209 1.76,-5.562 0,-3.75 -2.4,-6.09 -2.26,-2.24 -5.77,-2.24 z m 18.09,-3.01 h 3.89 v 2.74 q 1.06,-1.3 1.91,-1.91 1.89,-1.36 4.58,-1.36 2.05,0 3.78,0.85 1.76,0.83 2.69,2.27 1.27,1.94 1.27,6.01 V 0 h -3.88 v -13.39 q 0,-3.16 -0.75,-4.39 -1.14,-1.89 -3.99,-1.89 -3.4,0 -4.68,2.69 -0.93,1.92 -0.93,5.67 V 0 h -3.89 z m 29.46,3.6 V 0 h -3.88 v -19.05 h -2.37 v -3.6 h 2.37 v -8.11 h 3.88 v 8.11 h 3.99 v 3.6 z m 25.13,-3.6 h 3.9 V 0 h -3.9 v -3.14 q -3.1,3.8053 -7.8,3.8053 -5,0 -8.17,-3.8583 -2.69,-3.247 -2.69,-8.167 0,-5.72 3.56,-9.02 3.1,-2.8 7.3,-2.8 4.7,0 7.8,3.75 z m -7.4,2.98 q -3.1,0 -5.3,2.53 -2,2.29 -2,5.8 0,3.942 2.4,6.364 2,2.129 5.1,2.129 3.6,0 5.8,-2.821 1.7,-2.209 1.7,-5.752 0,-3.99 -2.4,-6.17 -2.2,-2.08 -5.3,-2.08 z m 22.6,-20.09 v 25.47 l 8.2,-8.36 h 5.2 l -9.7,9.64 L 146.3,0 h -5.1 l -9.1,-10.3 -1,0.986 V 0 h -3.9 v -39.76 z m 23,20.71 V 0 h -3.9 v -19.05 h -2.4 v -3.6 h 2.4 v -8.11 h 3.9 v 8.11 h 4 v 3.6 z m 4.1,5.69 h 9.8 v 3.487 h -9.8 z m 31,-9.29 v 13.23 q 0,2.927 0.7,4.231 0.6,1.091 1.8,1.73 1.2,0.612 2.6,0.612 1.5,0 2.7,-0.612 1.1,-0.639 1.7,-1.73 0.7,-1.304 0.7,-4.231 v -13.23 h 3.9 v 13.655 q 0,3.22 -0.8,4.923 -1.1,2.449 -3.7,3.7261 -2,1.0112 -4.5,1.0112 -4.3,0 -6.9,-2.8473 -1.4,-1.517 -1.8,-3.353 -0.3,-1.437 -0.3,-3.46 V -22.65 Z m 21.5,0 h 3.9 v 2.74 q 1.1,-1.3 1.9,-1.91 1.9,-1.36 4.6,-1.36 2,0 3.8,0.85 1.7,0.83 2.7,2.27 1.2,1.94 1.2,6.01 V 0 h -3.9 v -13.39 q 0,-3.16 -0.7,-4.39 -1.1,-1.89 -4,-1.89 -3.4,0 -4.7,2.69 -0.9,1.92 -0.9,5.67 V 0 h -3.9 z m 42.8,-17.11 h 3.9 V 0 h -3.9 v -3.14 q -3.1,3.8053 -7.8,3.8053 -5,0 -8.2,-3.8583 -2.7,-3.247 -2.7,-8.147 0,-5.69 3.6,-9.02 3.1,-2.79 7.2,-2.79 4.7,0 7.9,3.75 z m -7.4,20.12 q -3.2,0 -5.3,2.53 -2,2.29 -2,5.8 0,3.912 2.4,6.36 2,2.103 5.1,2.103 3.6,0 5.8,-2.795 1.7,-2.235 1.7,-5.778 0,-3.96 -2.4,-6.14 -2.2,-2.08 -5.3,-2.08 z" />
      <path d="M 4.71,45 V 8.676 h 6.6 q 5.46,0 8.22,2.264 1.55,1.3 2.45,3.32 0.91,2.03 0.91,4.26 0,3.17 -1.68,5.32 -0.64,0.83 -1.92,1.76 2.29,0.67 3.76,1.97 3.11,2.74 3.11,7.21 0,4.76 -3.67,7.75 -1.79,1.46 -3.78,1.94 Q 16.61,45 13.76,45 Z M 8.782,24.7 h 3.038 q 2.58,0 3.77,-0.51 1.81,-0.8 2.69,-2.63 0.64,-1.31 0.64,-2.99 0,-3.08 -1.92,-4.76 -1.57,-1.36 -5.08,-1.36 H 8.782 Z m 0,16.52 h 4.628 q 3.2,0 4.61,-0.56 2.12,-0.85 3.24,-2.79 0.85,-1.49 0.85,-3.22 0,-1.65 -0.85,-3.14 -0.82,-1.49 -2.18,-2.24 -2.05,-1.11 -6.2,-1.11 H 8.782 Z M 52.88,34.49 H 35.23 q 0.11,2.31 0.96,3.91 0.96,1.78 2.61,2.77 1.65,0.98 3.62,0.98 2.87,0 4.82,-1.89 0.93,-0.87 2.15,-2.87 l 3.27,1.84 q -1.35,2.36 -2.79,3.64 -3.14,2.8 -7.58,2.8 -5.43,0 -8.63,-3.94 -2.52,-3.14 -2.52,-7.91 0,-5.51 3.22,-8.83 3.03,-3.14 7.74,-3.14 4.26,0 7.21,2.66 3.57,3.19 3.57,9.23 0,0.24 0,0.75 z m -4.1,-3.27 q -0.37,-1.89 -1.31,-3.17 -1.99,-2.69 -5.32,-2.69 -3.48,0 -5.56,3.01 -0.82,1.22 -1.12,2.85 z m 10.03,-8.87 h 3.89 v 2.45 q 1.11,-1.36 1.78,-1.91 1.33,-1.1 3.33,-1.1 1.67,0 3.46,0.99 l -1.84,3.51 q -1.2,-0.8 -2.26,-0.8 -1.09,0 -2.11,0.59 -0.98,0.56 -1.49,1.46 -0.87,1.63 -0.87,5.54 V 45 h -3.89 z m 32.76,0 h 3.88 V 45 h -3.88 v -3.14 q -3.19,3.81 -7.8,3.81 -5.05,0 -8.22,-3.86 -2.69,-3.25 -2.69,-8.17 0,-5.72 3.59,-9.02 3.06,-2.8 7.24,-2.8 4.69,0 7.88,3.75 z m -7.4,2.98 q -3.19,0 -5.37,2.53 -1.97,2.29 -1.97,5.8 0,3.94 2.37,6.36 2.07,2.13 5.13,2.13 3.57,0 5.78,-2.82 1.73,-2.21 1.73,-5.75 0,-3.99 -2.37,-6.17 -2.24,-2.08 -5.3,-2.08 z m 22.63,0.62 V 45 h -3.9 V 25.95 h -2.4 v -3.6 h 2.4 v -8.11 h 3.9 v 8.11 h 4 v 3.6 z m 11.6,-3.6 v 13.23 q 0,2.93 0.7,4.23 0.6,1.09 1.8,1.73 1.2,0.61 2.6,0.61 1.5,0 2.6,-0.61 1.2,-0.64 1.8,-1.73 0.7,-1.3 0.7,-4.23 V 22.35 h 3.9 v 13.66 q 0,3.22 -0.8,4.92 -1.1,2.45 -3.7,3.72 -2,1.02 -4.5,1.02 -4.4,0 -6.9,-2.85 -1.4,-1.52 -1.8,-3.36 -0.3,-1.43 -0.3,-3.45 V 22.35 Z m 21.5,0 h 3.9 v 2.74 q 1,-1.3 1.9,-1.91 1.9,-1.36 4.6,-1.36 2,0 3.8,0.85 1.7,0.83 2.6,2.27 1.3,1.94 1.3,6.01 V 45 h -3.9 V 31.61 q 0,-3.16 -0.7,-4.39 -1.2,-1.89 -4,-1.89 -3.4,0 -4.7,2.69 -0.9,1.92 -0.9,5.67 V 45 h -3.9 z m 46.8,0 v 22.14 q 0,4.21 -0.8,6.26 -1.3,3.59 -4.6,5.43 -2.6,1.43 -5.8,1.43 -5.1,0 -8.1,-3 -2.8,-2.82 -3,-7.4 h 3.9 q 0.2,2.5 1.1,3.83 0.8,1.44 2.5,2.24 1.7,0.82 3.6,0.82 3.9,0 5.8,-2.79 1.5,-2.13 1.5,-6.15 v -3.3 q -3.3,3.75 -8,3.75 -4.8,0 -8,-3.64 -2.8,-3.25 -2.8,-8.23 0,-5.51 3.4,-8.86 3.2,-3.09 7.6,-3.09 4.6,0 7.8,3.76 v -3.2 z m -11.4,2.96 q -3.6,0 -5.8,3.03 -1.5,2.18 -1.5,5.51 0,3.67 2,5.85 2.2,2.4 5.4,2.4 3.5,0 5.8,-2.79 1.8,-2.13 1.8,-5.65 0,-4.12 -2.5,-6.36 -2.3,-1.99 -5.2,-1.99 z m 31.2,0.64 -3.2,1.67 q -1.2,-2.26 -3.1,-2.26 -1.3,0 -2.1,0.91 -0.6,0.66 -0.6,1.62 0,1.09 0.9,1.84 0.7,0.55 2.7,1.38 3.1,1.28 4.3,2.18 2.5,1.81 2.5,4.98 0,3.32 -2.4,5.45 -2.2,1.95 -5.4,1.95 -5.6,0 -7.9,-5.78 l 3.4,-1.44 q 0.7,1.36 1.2,2.03 1.3,1.67 3.4,1.67 1.9,0 2.9,-1.27 0.8,-1.02 0.8,-2.32 0,-1.38 -1,-2.32 -0.6,-0.58 -2.6,-1.46 -3.2,-1.33 -4.6,-2.34 -2,-1.46 -2,-4.23 0,-2.96 2.2,-4.74 1.9,-1.62 4.4,-1.62 4.1,0 6.2,4.1 z m 19.1,0 -3.2,1.67 q -1.2,-2.26 -3.1,-2.26 -1.3,0 -2.1,0.91 -0.7,0.66 -0.7,1.62 0,1.09 1,1.84 0.7,0.55 2.7,1.38 3,1.28 4.3,2.18 2.5,1.81 2.5,4.98 0,3.32 -2.5,5.45 -2.2,1.95 -5.3,1.95 -5.6,0 -7.9,-5.78 l 3.4,-1.44 q 0.7,1.36 1.2,2.03 1.2,1.67 3.4,1.67 1.9,0 2.9,-1.27 0.8,-1.02 0.8,-2.32 0,-1.38 -1,-2.32 -0.6,-0.58 -2.7,-1.46 -3.1,-1.33 -4.5,-2.34 -2,-1.46 -2,-4.23 0,-2.96 2.1,-4.74 2,-1.62 4.5,-1.62 4.1,0 6.2,4.1 z m 10.8,0 V 45 h -3.9 V 25.95 h -2.3 v -3.6 h 2.3 v -8.11 h 3.9 v 8.11 h 4 v 3.6 z m 28.2,8.54 H 247 q 0.1,2.31 0.9,3.91 1,1.78 2.6,2.77 1.7,0.98 3.7,0.98 2.8,0 4.8,-1.89 0.9,-0.87 2.1,-2.87 l 3.3,1.84 q -1.3,2.36 -2.8,3.64 -3.1,2.8 -7.6,2.8 -5.4,0 -8.6,-3.94 -2.5,-3.14 -2.5,-7.91 0,-5.51 3.2,-8.83 3,-3.14 7.7,-3.14 4.3,0 7.3,2.66 3.5,3.19 3.5,9.23 0,0.24 0,0.75 z m -4.1,-3.27 q -0.3,-1.89 -1.3,-3.17 -2,-2.69 -5.3,-2.69 -3.5,0 -5.6,3.01 -0.8,1.22 -1.1,2.85 z M 274.4,5.243 V 45 h -3.8 V 5.243 Z m 11.4,0 V 45 h -3.9 V 5.243 Z m 27.7,29.247 h -17.7 q 0.1,2.31 1,3.91 1,1.78 2.6,2.77 1.7,0.98 3.6,0.98 2.9,0 4.8,-1.89 1,-0.87 2.2,-2.87 l 3.3,1.84 q -1.4,2.36 -2.8,3.64 -3.2,2.8 -7.6,2.8 -5.4,0 -8.6,-3.94 -2.6,-3.14 -2.6,-7.91 0,-5.51 3.3,-8.83 3,-3.14 7.7,-3.14 4.3,0 7.2,2.66 3.6,3.19 3.6,9.23 0,0.24 0,0.75 z m -4.1,-3.27 q -0.4,-1.89 -1.3,-3.17 -2,-2.69 -5.3,-2.69 -3.5,0 -5.6,3.01 -0.8,1.22 -1.1,2.85 z" />
   </g>
   <path d="M 3.936,-13.08 V 0 H 2.527 V -13.08 H 0.9281 v -1.29 H 2.527 v -6.82 q 0,-2.37 0.721,-3.39 1.066,-1.49 3.043,-1.49 0.584,0 1.254,0.2 v 1.29 q -0.739,-0.15 -1.117,-0.15 -1.323,0 -1.908,0.89 -0.584,0.89 -0.584,2.94 v 6.53 h 3.609 v 1.29 z m 7.474,-1.29 v 8.561 q 0,2.251 0.48,3.162 0.4,0.774 1.29,1.255 0.91,0.4639 2,0.4639 1.06,0 1.96,-0.4639 0.91,-0.481 1.3,-1.255 0.48,-0.911 0.48,-3.162 v -8.561 h 1.41 v 9.059 q 0,1.513 -0.22,2.372 -0.22,0.842 -0.83,1.547 -1.47,1.7701 -4.1,1.7701 -2.65,0 -4.15,-1.7701 Q 10.45,-2.08 10.23,-2.939 10,-3.798 10,-5.311 v -9.059 z m 0.84,-5.53 q 0.54,0 0.9,0.37 0.38,0.37 0.38,0.9 0,0.53 -0.38,0.91 -0.38,0.38 -0.9,0.38 -0.53,0 -0.91,-0.38 -0.37,-0.38 -0.37,-0.91 0,-0.53 0.37,-0.9 0.38,-0.37 0.91,-0.37 z m 5.85,0 q 0.51,0 0.89,0.37 0.38,0.38 0.38,0.9 0,0.53 -0.38,0.91 -0.38,0.38 -0.89,0.38 -0.55,0 -0.93,-0.38 -0.36,-0.38 -0.36,-0.91 0,-0.53 0.38,-0.9 0.38,-0.37 0.91,-0.37 z m 7.23,5.53 h 1.41 v 1.87 q 1.12,-2.18 3.18,-2.18 0.69,0 1.52,0.35 l -0.74,1.23 q -0.57,-0.29 -1.02,-0.29 -1.25,0 -2.16,1.17 -0.47,0.62 -0.62,1.49 -0.16,0.882 -0.16,3.013 V 0 h -1.41 z m 30.82,3.11 h 9.88 q 0,2.271 -0.27,3.629 -0.28,1.34 -1.01,2.612 -1.36,2.338 -3.98,3.816 -2.85,1.5983 -6.01,1.5983 -3.27,0 -6.17,-1.7183 -2.85,-1.685 -4.44,-4.504 -1.53,-2.698 -1.53,-5.813 0,-3.33 1.78,-6.25 1.7,-2.8 4.55,-4.39 2.77,-1.51 5.91,-1.51 4.16,0 7.36,2.53 1.29,1.01 2.82,2.97 l -1.21,0.96 q -1.3,-1.73 -2.25,-2.54 -1.36,-1.17 -3.14,-1.82 -1.79,-0.67 -3.61,-0.67 -2.61,0 -4.97,1.27 -2.73,1.5 -4.28,4.25 -1.41,2.49 -1.41,5.24 0,2.491 1.14,4.708 1.39,2.733 4.05,4.331 2.53,1.53 5.36,1.53 3.51,0 6.47,-2.217 1.68,-1.255 2.39,-2.716 0.7,-1.461 0.82,-3.884 h -8.25 z m 27.21,4.265 H 71.02 q 0.1,1.993 0.79,3.248 0.72,1.272 2.03,2.045 1.32,0.7739 2.78,0.7739 2.12,0 3.63,-1.3749 0.67,-0.602 1.46,-1.925 l 1.2,0.705 q -2.2,3.9011 -6.37,3.9011 -3.39,0 -5.38,-2.5091 -1.67,-2.063 -1.67,-4.967 0,-3.232 2.01,-5.452 1.93,-2.13 5,-2.13 3.04,0 4.92,2.12 1.87,2.09 1.94,5.565 z m -1.6,-1.341 q -0.31,-1.633 -1.05,-2.694 -0.75,-1.09 -1.89,-1.71 -1.13,-0.63 -2.35,-0.63 -1.27,0 -2.48,0.69 -1.2,0.68 -1.96,1.83 -0.68,1.036 -0.91,2.514 z m 7.12,-4.744 V 0 h -1.41 v -13.08 h -1.6 v -1.29 h 1.6 v -6.82 q 0,-2.37 0.72,-3.39 1.06,-1.49 3.04,-1.49 0.59,0 1.26,0.2 v 1.29 q -0.74,-0.15 -1.12,-0.15 -1.32,0 -1.91,0.89 -0.58,0.89 -0.58,2.94 v 6.53 h 3.61 v 1.29 z m 7.8,-12.6 V 0 h -1.41 v -25.68 z m 6.42,11.31 v 8.561 q 0,2.251 0.5,3.162 0.4,0.774 1.3,1.255 0.9,0.4639 2,0.4639 1,0 1.9,-0.4639 0.9,-0.481 1.3,-1.255 0.5,-0.911 0.5,-3.162 v -8.561 h 1.4 v 9.059 q 0,1.513 -0.2,2.372 -0.2,0.842 -0.8,1.547 -1.5,1.7701 -4.1,1.7701 -2.7,0 -4.2,-1.7701 -0.6,-0.688 -0.8,-1.547 -0.2,-0.859 -0.2,-2.372 v -9.059 z m 0.9,-5.53 q 0.5,0 0.8,0.37 0.4,0.37 0.4,0.9 0,0.53 -0.4,0.91 -0.3,0.38 -0.8,0.38 -0.6,0 -1,-0.38 -0.3,-0.38 -0.3,-0.91 0,-0.53 0.3,-0.9 0.4,-0.37 1,-0.37 z m 5.8,0 q 0.5,0 0.9,0.37 0.4,0.38 0.4,0.9 0,0.53 -0.4,0.91 -0.4,0.38 -0.9,0.38 -0.6,0 -0.9,-0.38 -0.4,-0.38 -0.4,-0.91 0,-0.53 0.4,-0.9 0.4,-0.37 0.9,-0.37 z m 18.7,7.06 V -11 q -1.2,-1.17 -2.1,-1.65 -1.4,-0.72 -2.9,-0.72 -2.7,0 -4.4,2.01 -1.6,1.804 -1.6,4.244 0,2.561 1.7,4.349 1.8,1.8389 4.3,1.8389 2.9,0 5.2,-2.5949 v 1.89 q -2.4,2.0111 -5.2,2.0111 -2.3,0 -4.2,-1.2203 -1.8,-1.2028 -2.6,-3.2308 -0.6,-1.41 -0.6,-2.991 0,-3.246 2.2,-5.496 2,-2.12 5.2,-2.12 2.7,0 5,1.84 z m 3.8,-12.84 h 1.4 v 13.55 q 0.7,-1.04 1.3,-1.52 1.3,-1.03 3.1,-1.03 1.7,0 3,0.96 0.9,0.69 1.3,1.76 0.4,1.05 0.4,2.919 V 0 h -1.4 v -9.041 q 0,-2.059 -0.5,-2.939 -0.4,-0.64 -1.2,-1.01 -0.8,-0.38 -1.8,-0.38 -2.3,0 -3.4,1.96 -0.5,0.75 -0.6,1.613 -0.2,0.859 -0.2,2.32 V 0 h -1.4 z m 17.1,12.6 V 0 H 148 v -13.08 h -1.6 v -1.29 h 1.6 v -5.14 h 1.4 v 5.14 h 2.5 v 1.29 z m 18.2,6.085 h -12.4 q 0.1,1.993 0.8,3.248 0.8,1.272 2.1,2.045 1.3,0.7739 2.7,0.7739 2.2,0 3.7,-1.3749 0.6,-0.602 1.4,-1.925 l 1.2,0.705 q -2.2,3.9011 -6.3,3.9011 -3.4,0 -5.4,-2.5091 -1.7,-2.063 -1.7,-4.967 0,-3.232 2,-5.452 1.9,-2.13 5,-2.13 3.1,0 4.9,2.12 1.9,2.09 2,5.565 z M 166,-8.336 q -0.3,-1.633 -1.1,-2.694 -0.7,-1.09 -1.9,-1.71 -1.1,-0.63 -2.3,-0.63 -1.3,0 -2.5,0.69 -1.2,0.68 -1.9,1.83 -0.7,1.036 -1,2.514 z m 7.1,-4.744 V 0 h -1.4 v -13.08 h -1.6 v -1.29 h 1.6 v -5.14 h 1.4 v 5.14 h 2.5 v 1.29 z m 18.2,6.085 h -12.4 q 0.1,1.993 0.8,3.248 0.8,1.272 2.1,2.045 1.3,0.7739 2.7,0.7739 2.2,0 3.7,-1.3749 0.6,-0.602 1.4,-1.925 l 1.2,0.705 q -2.2,3.9011 -6.3,3.9011 -3.4,0 -5.4,-2.5091 -1.7,-2.063 -1.7,-4.967 0,-3.232 2,-5.452 1.9,-2.13 5,-2.13 3.1,0 4.9,2.12 1.9,2.09 2,5.565 z m -1.6,-1.341 q -0.3,-1.633 -1.1,-2.694 -0.7,-1.09 -1.9,-1.71 -1.1,-0.63 -2.3,-0.63 -1.3,0 -2.5,0.69 -1.2,0.68 -1.9,1.83 -0.7,1.036 -1,2.514 z m 15.9,-6.034 v 8.561 q 0,2.251 0.5,3.162 0.4,0.774 1.2,1.255 1,0.4639 2,0.4639 1.1,0 2,-0.4639 0.9,-0.481 1.3,-1.255 0.5,-0.911 0.5,-3.162 v -8.561 h 1.4 v 9.059 q 0,1.513 -0.2,2.372 -0.2,0.842 -0.8,1.547 -1.5,1.7701 -4.2,1.7701 -2.6,0 -4.1,-1.7701 -0.6,-0.688 -0.8,-1.547 -0.2,-0.859 -0.2,-2.372 v -9.059 z m 13.9,0 h 1.4 v 2.24 q 0.7,-1.04 1.3,-1.52 1.3,-1.03 3.1,-1.03 1.7,0 3,0.96 0.9,0.69 1.3,1.74 0.4,1.05 0.4,2.922 V 0 h -1.4 v -9.058 q 0,-2.042 -0.5,-2.922 -0.9,-1.39 -3,-1.39 -2.3,0 -3.4,1.96 -0.4,0.75 -0.6,1.613 -0.2,0.842 -0.2,2.32 V 0 h -1.4 z m 27.2,-11.31 h 1.4 V 0 h -1.4 v -2.578 q -0.8,1.134 -1.7,1.7702 -1.8,1.1859 -3.9,1.1859 -3.3,0 -5.4,-2.4921 -1.6,-2.045 -1.6,-5.139 0,-3.777 2.4,-5.827 1.9,-1.6 4.6,-1.6 3.4,0 5.6,2.8 z m -5.6,12.31 q -2.4,0 -4.1,1.87 -1.5,1.617 -1.5,4.161 0,2.939 1.7,4.709 1.7,1.7019 3.9,1.7019 2.8,0 4.4,-2.1489 1.3,-1.65 1.3,-4.245 0,-2.978 -1.8,-4.518 -1.7,-1.5 -3.9,-1.53 z M 262.4,0 265,-24.29 275.1,-2.561 285.4,-24.29 288.1,0 h -1.6 L 284.4,-18.87 275.1,0.8422 265.9,-18.87 263.9,0 Z m 32.5,-14.37 V 0 h -1.4 v -14.37 z m -0.7,-6.05 q 0.5,0 0.9,0.38 0.4,0.36 0.4,0.89 0,0.54 -0.4,0.91 -0.4,0.38 -0.9,0.38 -0.5,0 -0.9,-0.38 -0.4,-0.37 -0.4,-0.92 0,-0.52 0.4,-0.88 0.4,-0.38 0.9,-0.38 z m 19,6.05 v 14.0778 q 0,2.1652 -0.3,3.4722 -0.3,1.306 -1.2,2.423 -2,2.613 -5.7,2.613 -2.9,0 -4.9,-1.65 -1.8,-1.582 -2.1,-4.503 h 1.4 q 0.2,1.581 0.9,2.56 0.7,1.066 2,1.668 1.2,0.601 2.7,0.601 3,0 4.6,-2.148 1.2,-1.822 1.2,-5.0362 V -2.458 q -2.4,2.8189 -5.7,2.8189 -3.1,0 -5.1,-2.4239 -1.9,-2.131 -1.9,-5.104 0,-3.253 2.2,-5.433 2,-2.08 5.1,-2.08 1.7,0 2.9,0.65 1.3,0.64 2.5,2.17 v -2.51 z m -7,1.02 q -2.7,0 -4.4,2.28 -1.2,1.651 -1.2,3.868 0,2.63 1.4,4.314 1.6,1.9427 4.1,1.9427 2.7,0 4.5,-2.0797 1.3,-1.581 1.3,-4.211 0,-2.854 -1.7,-4.464 -1.8,-1.62 -4,-1.65 z m 12.2,-1.02 h 1.4 v 1.87 q 1.1,-2.18 3.2,-2.18 0.7,0 1.5,0.35 l -0.8,1.23 q -0.5,-0.29 -1,-0.29 -1.2,0 -2.1,1.17 -0.5,0.62 -0.7,1.49 -0.1,0.882 -0.1,3.013 V 0 h -1.4 z m 20,0 h 1.4 V 0 h -1.4 v -2.578 q -0.8,1.134 -1.7,1.7702 -1.8,1.1859 -3.9,1.1859 -3.3,0 -5.4,-2.4921 -1.7,-2.045 -1.7,-5.139 0,-3.777 2.5,-5.827 1.9,-1.6 4.5,-1.6 3.5,0 5.7,2.8 z m -5.6,1 q -2.4,0 -4.1,1.87 -1.5,1.617 -1.5,4.161 0,2.939 1.7,4.709 1.6,1.7019 3.9,1.7019 2.7,0 4.4,-2.1489 1.2,-1.65 1.2,-4.245 0,-2.978 -1.7,-4.518 -1.7,-1.5 -3.9,-1.53 z m 12,-1 h 1.4 v 2.24 q 0.7,-1.04 1.3,-1.52 1.3,-1.03 3.1,-1.03 1.7,0 3,0.96 0.9,0.69 1.3,1.74 0.3,1.05 0.3,2.922 V 0 h -1.4 v -9.058 q 0,-2.042 -0.5,-2.922 -0.8,-1.39 -2.9,-1.39 -2.3,0 -3.5,1.96 -0.4,0.75 -0.6,1.613 -0.1,0.842 -0.1,2.32 V 0 h -1.4 z m 17,1.29 V 0 h -1.4 v -13.08 h -1.6 v -1.29 h 1.6 v -5.14 h 1.4 v 5.14 h 2.5 v 1.29 z m 12.6,-3.01 -0.5,4.13 4.2,-1.24 0.2,2.06 -3.8,0.28 2.5,3.297 -1.8,1.1 -1.8,-3.717 -1.7,3.717 -1.9,-1.1 2.5,-3.297 -3.9,-0.28 0.3,-2.06 4,1.24 -0.4,-4.13 z m 11.7,1.72 V 0 h -1.4 v -14.37 z m -0.7,-6.05 q 0.6,0 0.9,0.38 0.4,0.36 0.4,0.89 0,0.54 -0.4,0.91 -0.3,0.38 -0.9,0.38 -0.5,0 -0.9,-0.38 -0.4,-0.37 -0.4,-0.92 0,-0.52 0.4,-0.88 0.4,-0.38 0.9,-0.38 z m 5.7,6.05 h 1.4 v 2.24 q 0.7,-1.04 1.3,-1.52 1.3,-1.03 3.1,-1.03 1.7,0 3,0.96 0.9,0.69 1.3,1.74 0.4,1.05 0.4,2.922 V 0 h -1.4 v -9.058 q 0,-2.042 -0.5,-2.922 -0.8,-1.39 -3,-1.39 -2.3,0 -3.4,1.96 -0.4,0.75 -0.6,1.613 -0.2,0.842 -0.2,2.32 V 0 h -1.4 z m 15.5,0 h 1.4 v 2.24 q 0.7,-1.04 1.3,-1.52 1.3,-1.03 3.1,-1.03 1.7,0 3,0.96 0.9,0.69 1.3,1.74 0.4,1.05 0.4,2.922 V 0 h -1.4 v -9.058 q 0,-2.042 -0.5,-2.922 -0.9,-1.39 -3,-1.39 -2.3,0 -3.4,1.96 -0.4,0.75 -0.6,1.613 -0.2,0.842 -0.2,2.32 V 0 h -1.4 z m 28.4,7.375 h -12.3 q 0.1,1.993 0.8,3.248 0.7,1.272 2,2.045 1.3,0.7739 2.8,0.7739 2.1,0 3.6,-1.3749 0.7,-0.602 1.5,-1.925 l 1.2,0.705 q -2.2,3.9011 -6.4,3.9011 -3.4,0 -5.4,-2.5091 -1.6,-2.063 -1.6,-4.967 0,-3.232 2,-5.452 1.9,-2.13 5,-2.13 3,0 4.9,2.12 1.9,2.09 1.9,5.565 z m -1.6,-1.341 q -0.3,-1.633 -1,-2.694 -0.8,-1.09 -1.9,-1.71 -1.1,-0.63 -2.4,-0.63 -1.2,0 -2.4,0.69 -1.2,0.68 -2,1.83 -0.7,1.036 -0.9,2.514 z m 5.7,-6.034 h 1.4 v 2.24 q 0.7,-1.04 1.3,-1.52 1.3,-1.03 3.1,-1.03 1.7,0 3,0.96 0.9,0.69 1.3,1.74 0.4,1.05 0.4,2.922 V 0 h -1.4 v -9.058 q 0,-2.042 -0.5,-2.922 -0.9,-1.39 -3,-1.39 -2.3,0 -3.4,1.96 -0.4,0.75 -0.6,1.613 -0.2,0.842 -0.2,2.32 V 0 h -1.4 z m 37.2,7.375 H 464 q 0.1,1.993 0.8,3.248 0.7,1.272 2,2.045 1.3,0.7739 2.8,0.7739 2.1,0 3.6,-1.3749 0.7,-0.602 1.5,-1.925 l 1.2,0.705 q -2.2,3.9011 -6.4,3.9011 -3.4,0 -5.4,-2.5091 -1.6,-2.063 -1.6,-4.967 0,-3.232 2,-5.452 1.9,-2.13 5,-2.13 3,0 4.9,2.12 1.9,2.09 1.9,5.565 z m -1.6,-1.341 q -0.3,-1.633 -1,-2.694 -0.8,-1.09 -1.9,-1.71 -1.1,-0.63 -2.4,-0.63 -1.2,0 -2.4,0.69 -1.2,0.68 -2,1.83 -0.7,1.036 -0.9,2.514 z m 6.8,5.998 q 0.5,0 0.9,0.379 0.4,0.378 0.4,0.911 0,0.5324 -0.4,0.9105 -0.4,0.3781 -0.9,0.3781 -0.5,0 -0.9,-0.3781 -0.4,-0.3781 -0.4,-0.9285 0,-0.515 0.4,-0.893 0.4,-0.379 0.9,-0.379 z m 5.7,-21.122 6.9,19.799 6.7,-19.799 h 1.7 L 494.1,0.9625 485.5,-23.46 Z m 17.9,21.122 q 0.5,0 0.9,0.379 0.4,0.378 0.4,0.911 0,0.5324 -0.4,0.9105 -0.4,0.3781 -0.9,0.3781 -0.6,0 -0.9,-0.3781 -0.4,-0.3781 -0.4,-0.9285 0,-0.515 0.4,-0.893 0.3,-0.379 0.9,-0.379 z" transform="translate(31.2,191.2)" aria-label="für Geflüchtete und Migrant﹡innen e.V." />
</svg>
