<?xml version="1.0" encoding="UTF-8" ?>
<svg
   xmlns="http://www.w3.org/2000/svg"
   version="1.1"
   width="530"
   height="160"
   viewBox="0 0 530 160">
  <g transform="translate(-21.03751,-54.598)" fill="#111">
    <path d="m 250.732,73.056 5.37,-10e-4 -16.811,16.706 17.351,19.122 h -5.479 l -14.664,-16.435 -1.022,1.021 0.002,15.415 h -4.028 l -0.002,-35.827 h 4.027 l 0.001,15.362 15.255,-15.363 z" />
    <path d="m 283.385,97.815 c 0,6.606 -5.157,11.709 -11.817,11.711 -6.553,0 -11.762,-5.209 -11.762,-11.709 0,-6.499 5.209,-11.711 11.762,-11.711 6.661,0 11.817,5.103 11.817,11.709 z m -19.659,0 c 0,4.728 3.331,8.22 7.789,8.22 4.619,-0.002 7.951,-3.438 7.949,-8.22 0,-4.833 -3.277,-8.217 -7.951,-8.217 -4.51,0 -7.787,3.492 -7.787,8.217 z" />
    <path d="m 293.319,86.59 v 2.686 c 1.931,-2.363 3.652,-3.224 6.444,-3.224 2.686,0 5.158,1.181 6.393,3.061 0.857,1.396 1.235,3.063 1.235,5.962 v 13.804 h -3.814 V 95.72 c 0,-4.566 -1.235,-6.23 -4.727,-6.23 -3.869,0 -5.532,2.471 -5.532,8.273 v 11.117 h -3.814 V 86.59 h 3.815 z" />
    <path d="M 318.774,108.878 H 314.96 V 90.134 h -2.308 v -3.546 h 2.308 v -8.056 h 3.814 v 8.056 h 3.975 v 3.544 l -3.975,0.002 v 18.744 z" />
    <path d="m 347.563,86.585 v 22.291 l -3.814,10e-4 v -3.115 c -2.147,2.631 -4.514,3.759 -7.734,3.759 -6.123,0.001 -10.691,-5.048 -10.691,-11.816 0,-6.767 4.51,-11.656 10.691,-11.656 3.166,0 5.532,1.128 7.734,3.707 v -3.17 l 3.814,-0.001 z m -18.318,10.958 c 0,4.943 3.063,8.488 7.305,8.488 4.459,0 7.466,-3.438 7.466,-8.434 0,-4.727 -3.114,-8.057 -7.518,-8.057 -4.084,0.002 -7.253,3.492 -7.253,8.003 z" />
    <path d="m 358.943,94.803 8.06,-8.217 h 5.1 l -9.504,9.507 11.332,12.781 h -5.048 l -8.973,-10.15 -0.964,0.968 v 9.185 h -3.814 L 355.129,69.72 h 3.814 v 25.083 z" />
    <path d="m 381.823,108.874 h -3.814 V 90.129 h -2.308 v -3.544 h 2.308 v -8.058 l 3.814,-0.001 v 8.058 h 3.975 v 3.544 h -3.975 v 18.746 z" />
    <path d="m 395.84,95.714 v 3.438 l -9.72,0.002 v -3.439 h 9.72 z" />
    <path d="m 417.269,99.581 c 0,4.51 1.502,6.445 5.048,6.445 3.49,0 4.998,-1.935 4.998,-6.445 l -0.004,-12.999 3.814,-10e-4 v 13.428 c 0,3.276 -0.535,5.048 -2.041,6.714 -1.608,1.826 -4.026,2.793 -6.767,2.793 -2.792,0 -5.209,-0.967 -6.822,-2.792 -1.502,-1.667 -2.041,-3.438 -2.041,-6.715 V 86.583 h 3.814 v 12.998 z" />
    <path d="m 442.508,86.582 v 2.686 c 1.935,-2.364 3.653,-3.223 6.448,-3.223 2.682,-0.001 5.155,1.181 6.389,3.061 0.861,1.396 1.234,3.061 1.234,5.961 l 0.004,13.804 h -3.813 l -0.004,-13.16 c 0,-4.566 -1.235,-6.23 -4.726,-6.229 -3.867,0 -5.532,2.471 -5.532,8.271 v 11.117 l -3.811,0.002 -0.003,-22.291 h 3.814 z" />
    <path d="m 484.993,69.713 v 39.157 h -3.866 v -3.061 c -1.828,2.416 -4.458,3.705 -7.683,3.707 -6.122,0 -10.691,-5.049 -10.691,-11.817 0,-6.715 4.514,-11.602 10.691,-11.602 3.114,0 5.532,1.127 7.734,3.652 V 69.713 h 3.815 z m -18.315,27.878 c 0,4.941 3.062,8.432 7.305,8.432 4.514,0 7.412,-3.33 7.412,-8.434 0,-4.78 -3.008,-8.001 -7.466,-8.001 -4.082,-10e-4 -7.251,3.49 -7.251,8.003 z" />
    <path d="m 231.451,118.1 h 6.5 c 3.761,-10e-4 6.231,0.697 8.111,2.256 2.096,1.665 3.329,4.511 3.331,7.412 0,3.116 -1.075,5.21 -3.545,6.982 4.243,1.235 6.769,4.619 6.769,9.077 0,3.061 -1.289,5.801 -3.601,7.681 -2.201,1.773 -4.563,2.418 -8.647,2.418 h -8.916 L 231.451,118.1 z m 7.037,15.792 c 4.727,0 6.981,-1.987 6.981,-6.124 0,-3.977 -2.308,-5.962 -6.875,-5.961 h -3.116 l 0.002,12.085 h 3.008 z m 1.559,16.328 c 3.329,0 4.779,-0.376 6.284,-1.559 1.451,-1.234 2.31,-3.007 2.31,-4.995 0,-2.148 -1.234,-4.297 -3.008,-5.264 -1.396,-0.806 -3.224,-1.128 -6.124,-1.128 h -4.028 v 12.945 h 4.566 z" />
    <path d="m 261.742,143.559 c 0.214,4.565 3.063,7.519 7.091,7.519 2.955,0 4.727,-1.233 6.873,-4.673 l 3.224,1.825 c -2.469,4.352 -5.746,6.34 -10.312,6.34 -6.446,0 -10.905,-4.833 -10.905,-11.815 0,-6.823 4.512,-11.603 10.848,-11.605 6.338,0 10.583,4.673 10.583,11.657 v 0.75 l -17.402,0.002 z m 13.376,-3.224 c -0.699,-3.492 -3.276,-5.749 -6.556,-5.749 -3.222,0 -6.016,2.419 -6.55,5.75 l 13.106,-0.001 z" />
    <path d="m 289.08,131.632 v 2.417 c 1.986,-2.363 2.953,-2.953 5.045,-2.953 1.234,0 2.044,0.214 3.385,0.965 l -1.773,3.438 c -0.967,-0.591 -1.447,-0.752 -2.255,-0.752 -3.116,0 -4.402,2.202 -4.402,7.413 v 11.763 h -3.816 v -22.291 l 3.816,0 z" />
    <path d="m 322.214,131.631 0.003,22.29 -3.814,0.002 v -3.116 c -2.15,2.632 -4.51,3.759 -7.734,3.759 -6.125,0.001 -10.69,-5.047 -10.69,-11.816 0,-6.768 4.51,-11.655 10.687,-11.655 3.173,0 5.532,1.127 7.734,3.706 v -3.168 l 3.814,-0.002 z m -18.311,10.958 c 0,4.942 3.059,8.487 7.302,8.485 4.458,0 7.466,-3.437 7.466,-8.432 0,-4.727 -3.114,-8.059 -7.521,-8.059 -4.081,0.003 -7.247,3.496 -7.247,8.006 z" />
    <path d="m 333.601,153.92 -3.814,0.001 -0.003,-18.745 h -2.309 v -3.544 h 2.309 v -8.058 l 3.813,-0.001 v 8.059 h 3.976 v 3.544 h -3.976 l 0.004,18.744 z" />
    <path d="m 345.361,144.629 c 0,4.511 1.502,6.445 5.049,6.445 3.49,0 4.994,-1.934 4.994,-6.445 v -13 h 3.812 l 10e-4,13.427 c 0,3.276 -0.535,5.05 -2.041,6.714 -1.608,1.828 -4.026,2.793 -6.767,2.793 -2.792,0 -5.21,-0.965 -6.822,-2.792 -1.502,-1.664 -2.041,-3.438 -2.041,-6.714 v -13.426 l 3.813,-0.002 v 13 z" />
    <path d="m 370.601,131.627 v 2.687 c 1.934,-2.364 3.652,-3.223 6.444,-3.223 2.689,0 5.159,1.181 6.394,3.061 0.861,1.398 1.234,3.062 1.234,5.962 l 0.004,13.805 h -3.814 v -13.161 c 0,-4.566 -1.238,-6.23 -4.73,-6.23 -3.867,0 -5.532,2.471 -5.532,8.272 v 11.118 l -3.814,0.001 v -22.291 l 3.814,-10e-4 z" />
    <path d="m 413.085,153.434 c 0,4.403 -0.535,6.553 -2.147,8.754 -1.935,2.633 -5.158,4.136 -8.862,4.138 -6.445,0 -10.636,-3.922 -10.852,-10.205 l 3.763,-0.002 c 0.374,4.352 2.847,6.714 7.142,6.714 4.673,0 7.143,-3.008 7.143,-8.754 v -3.277 c -2.147,2.471 -4.832,3.706 -7.84,3.707 -6.071,0 -10.638,-4.995 -10.638,-11.655 -0.002,-6.768 4.567,-11.764 10.799,-11.764 3.113,0 5.532,1.182 7.679,3.706 v -3.169 h 3.814 v 21.807 z m -18.37,-10.636 c 0,4.835 3.008,8.22 7.305,8.22 4.298,-0.002 7.412,-3.439 7.412,-8.22 0,-4.834 -3.063,-8.217 -7.412,-8.217 -4.242,0 -7.305,3.437 -7.305,8.217 z" />
    <path d="m 429.839,136.834 c -0.806,-1.503 -1.773,-2.202 -3.062,-2.202 -1.502,0 -2.741,1.074 -2.741,2.418 0.004,1.341 0.7,2.041 3.602,3.221 5.371,2.257 6.715,3.654 6.715,7.037 0,4.082 -3.33,7.251 -7.573,7.251 -3.759,0 -6.394,-1.879 -7.844,-5.692 l 3.386,-1.396 c 1.29,2.739 2.363,3.599 4.51,3.599 2.044,-0.002 3.598,-1.505 3.598,-3.492 0,-1.718 -0.802,-2.525 -3.598,-3.706 -5.155,-2.255 -6.445,-3.544 -6.445,-6.499 0,-3.6 2.792,-6.231 6.657,-6.231 2.579,-0.002 4.62,1.343 5.965,4.028 l -3.17,1.664 z" />
    <path d="m 448.905,136.834 c -0.806,-1.505 -1.773,-2.203 -3.063,-2.203 -1.505,0 -2.74,1.074 -2.74,2.417 0,1.343 0.7,2.042 3.602,3.223 5.369,2.255 6.711,3.651 6.711,7.037 0,4.081 -3.33,7.251 -7.573,7.251 -3.759,0 -6.389,-1.88 -7.842,-5.693 l 3.383,-1.396 c 1.29,2.74 2.367,3.598 4.514,3.598 2.041,0 3.598,-1.504 3.598,-3.49 0,-1.72 -0.806,-2.525 -3.598,-3.707 -5.158,-2.256 -6.444,-3.545 -6.444,-6.499 0,-3.6 2.792,-6.232 6.657,-6.232 2.58,0 4.62,1.345 5.962,4.028 l -3.167,1.666 z" />
    <path d="m 462.655,153.914 -3.817,0.001 v -18.747 h -2.31 v -3.544 h 2.31 v -8.057 l 3.813,-0.002 v 8.058 h 3.975 v 3.544 h -3.975 l 0.004,18.747 z" />
    <path d="m 473.177,143.546 c 0.216,4.566 3.063,7.519 7.093,7.519 2.953,0 4.726,-1.235 6.873,-4.673 l 3.222,1.825 c -2.472,4.351 -5.747,6.341 -10.312,6.341 -6.445,0 -10.903,-4.834 -10.903,-11.818 0,-6.821 4.51,-11.601 10.848,-11.603 6.338,0 10.581,4.673 10.581,11.657 v 0.752 h -17.402 z m 13.376,-3.223 c -0.7,-3.492 -3.279,-5.747 -6.554,-5.747 -3.225,0 -6.016,2.417 -6.555,5.748 l 13.109,-0.001 z" />
    <path d="m 500.516,153.912 h -3.818 v -39.156 l 3.814,-0.001 0.004,39.157 z" />
    <path d="m 511.898,153.911 -3.814,0.001 v -39.158 h 3.814 v 39.157 z" />
    <path d="m 522.047,143.543 c 0.216,4.566 3.063,7.52 7.089,7.52 2.957,0 4.729,-1.236 6.875,-4.673 l 3.226,1.826 c -2.469,4.35 -5.748,6.337 -10.313,6.338 -6.445,0 -10.903,-4.833 -10.903,-11.817 0,-6.82 4.51,-11.603 10.848,-11.603 6.338,0 10.581,4.673 10.581,11.657 v 0.751 h -17.403 z m 13.376,-3.222 c -0.7,-3.491 -3.279,-5.747 -6.554,-5.747 -3.224,0 -6.016,2.417 -6.554,5.748 l 13.108,-0.001 z" />
    <g>
      <polygon points="48.738,124.614 49.523,151.947 77.5,152.193 51.411,121.783 " />
      <polygon points="68.708,85.846 47.675,87.594 48.263,108.042 " />
      <path d="m 87.204,84.309 -26.533,28.14 35.135,39.905 12.415,0.108 c -1.236,-1.474 -2.224,-3.046 -2.924,-4.733 -1.146,-2.57 -1.792,-6.415 -1.938,-11.54 l -0.929,-32.344 12.903,-0.37 0.919,32.057 c 0.264,9.253 4.048,13.775 11.352,13.564 7.299,-0.209 10.819,-4.94 10.555,-14.193 l -0.921,-32.055 12.903,-0.37 0.929,32.342 c 0.128,4.474 -0.316,8.352 -1.33,11.633 -0.766,2.273 -2.017,4.385 -3.73,6.342 l 17.294,0.151 -2.146,-74.788 -73.954,6.151 z" />
      <path d="m 202.982,153.292 20.405,0.986 -0.049,-82.201 -25.107,2.997 c 2.229,2.078 4.067,4.599 5.474,7.613 1.59,3.359 2.435,6.781 2.536,10.258 0.18,6.348 -2.093,11.788 -6.822,16.325 4.749,1.47 8.539,4.174 11.367,8.11 2.867,3.896 4.376,8.481 4.528,13.758 0.197,6.924 -2.083,12.841 -6.837,17.76 -1.692,1.791 -3.533,3.229 -5.495,4.394 z" />
      <path d="m 190.351,103.39 c 2.27,-2.284 3.339,-5.567 3.221,-9.851 -0.121,-4.167 -1.398,-7.287 -3.827,-9.361 -2.437,-2.111 -5.908,-3.101 -10.418,-2.972 l -4.704,0.136 0.74,25.748 4.186,-0.121 c 4.97,-0.142 8.569,-1.335 10.802,-3.579 z" />
      <path d="m 197.529,121.492 c -2.865,-2.481 -7.89,-3.618 -15.078,-3.414 l -6.767,0.193 0.77,26.782 8.258,-0.237 c 6.038,-0.172 10.441,-1.485 13.202,-3.938 2.909,-2.645 4.306,-5.937 4.192,-9.875 -0.107,-3.823 -1.635,-6.992 -4.577,-9.511 z" />
      <polygon points="32.376,88.843 34.187,151.838 36.355,151.859 34.542,88.667 " />
    </g>
    <g>
      <path d="m 35.498,191.065 h -1.439 v -13.356 h -1.622 v -1.333 h 1.622 v -6.984 c -0.002,-3.312 1.258,-5.004 3.777,-5.005 0.577,0 0.793,0.036 1.37,0.217 v 1.331 c -0.504,-0.106 -0.936,-0.179 -1.188,-0.179 -1.765,0 -2.521,1.187 -2.521,3.924 l 0.002,6.697 h 3.708 v 1.332 l -3.708,0.001 v 13.355 z" />
      <path d="m 43.239,185.124 c 0,1.693 0.143,2.556 0.467,3.241 0.539,1.043 1.909,1.764 3.383,1.764 1.441,0 2.81,-0.721 3.349,-1.765 0.324,-0.685 0.467,-1.549 0.467,-3.241 v -8.748 h 1.442 v 9.251 c 0,2.053 -0.253,3.061 -1.081,4.034 -0.937,1.114 -2.483,1.8 -4.176,1.8 -1.727,0 -3.275,-0.686 -4.211,-1.8 -0.828,-0.972 -1.081,-1.979 -1.081,-4.033 v -9.252 l 1.439,0 0.002,8.749 z m 2.158,-12.996 c 0,0.756 -0.577,1.332 -1.295,1.332 -0.72,0 -1.333,-0.612 -1.333,-1.332 0,-0.721 0.577,-1.296 1.333,-1.296 0.718,0 1.295,0.576 1.295,1.296 z m 5.978,0 c 0,0.755 -0.576,1.332 -1.297,1.332 -0.757,0 -1.332,-0.576 -1.332,-1.332 0,-0.72 0.575,-1.296 1.332,-1.296 0.72,0 1.297,0.575 1.297,1.296 z" />
      <path d="m 59.005,176.376 v 1.907 c 0.794,-1.548 1.765,-2.231 3.241,-2.231 0.541,0 0.899,0.071 1.583,0.359 l -0.791,1.26 c -0.434,-0.251 -0.683,-0.324 -1.008,-0.324 -1.008,0 -2.123,0.792 -2.592,1.8 -0.361,0.865 -0.433,1.548 -0.433,4.032 l 0.002,7.884 h -1.441 v -14.688 h 1.439 z" />
      <path d="m 78.303,168.49 0.002,8.712 h 7.919 v 1.439 l -7.919,0.001 v 12.42 h -1.548 l -0.003,-24.014 h 9.685 v 1.439 l -8.136,0.003 z" />
      <path d="m 92.201,191.062 h -1.442 v -26.246 h 1.44 l 0.002,26.246 z" />
      <path d="m 98.861,185.121 c 0,1.693 0.143,2.557 0.467,3.241 0.539,1.044 1.909,1.764 3.384,1.764 1.441,0 2.81,-0.72 3.348,-1.764 0.325,-0.684 0.469,-1.548 0.469,-3.241 l -0.002,-8.748 h 1.443 v 9.252 c 0,2.053 -0.251,3.061 -1.081,4.032 -0.936,1.117 -2.484,1.8 -4.176,1.8 -1.728,0 -3.275,-0.684 -4.212,-1.799 -0.828,-0.973 -1.081,-1.981 -1.081,-4.034 v -9.252 h 1.441 v 8.749 z m 2.158,-12.997 c 0,0.757 -0.577,1.333 -1.294,1.333 -0.72,0 -1.333,-0.612 -1.333,-1.333 0,-0.72 0.577,-1.295 1.333,-1.295 0.717,0 1.294,0.575 1.294,1.295 z m 5.977,0 c 0,0.757 -0.574,1.333 -1.295,1.333 -0.757,0 -1.332,-0.576 -1.332,-1.333 0,-0.72 0.575,-1.296 1.332,-1.296 0.721,0 1.295,0.576 1.295,1.296 z" />
      <path d="m 124.962,179.827 c -1.766,-1.762 -3.206,-2.447 -5.185,-2.447 -3.385,0 -6.048,2.845 -6.048,6.409 0,3.528 2.7,6.336 6.083,6.336 2.017,0 3.744,-0.864 5.329,-2.665 v 1.944 c -1.69,1.404 -3.349,2.052 -5.329,2.052 -4.283,0.001 -7.56,-3.311 -7.56,-7.596 0,-4.465 3.277,-7.813 7.56,-7.814 1.98,0 3.457,0.541 5.149,1.873 v 1.908 z" />
      <path d="m 130.577,164.814 0.001,13.861 c 1.187,-1.872 2.519,-2.628 4.499,-2.628 1.692,0 3.312,0.792 4.068,2.052 0.504,0.828 0.72,1.945 0.72,3.708 l 0.001,9.253 h -1.441 v -9.253 c 0,-3.169 -1.009,-4.427 -3.528,-4.427 -2.881,0 -4.319,2.016 -4.319,6.048 v 7.632 h -1.439 l -0.002,-26.246 h 1.44 z" />
      <path d="m 146.671,191.059 h -1.44 l -0.001,-13.357 h -1.62 v -1.332 h 1.62 v -5.256 h 1.439 l 0.002,5.256 h 2.59 v 1.332 h -2.59 v 13.357 z" />
      <path d="m 153.582,191.059 h -1.438 l -0.004,-26.246 h 1.441 l 0.001,26.246 z" />
      <path d="m 160.852,171.474 c 0,0.755 -0.574,1.332 -1.294,1.332 -0.757,0 -1.334,-0.576 -1.334,-1.332 0,-0.721 0.577,-1.297 1.334,-1.297 0.72,0 1.294,0.576 1.294,1.297 z m -0.609,19.585 h -1.44 l -0.002,-14.689 h 1.44 l 0.002,14.689 z" />
      <path d="m 166.902,176.368 v 2.306 c 1.189,-1.872 2.521,-2.629 4.464,-2.629 1.728,0 3.312,0.793 4.068,2.051 0.503,0.829 0.72,1.946 0.72,3.709 l 0.002,9.253 h -1.441 v -9.253 c 0,-3.168 -1.01,-4.428 -3.528,-4.428 -2.845,0 -4.285,2.016 -4.283,6.049 v 7.633 h -1.44 l -0.002,-14.691 h 1.44 z" />
      <path d="m 195.021,190.769 c 0,2.952 -0.398,4.538 -1.585,6.049 -1.332,1.692 -3.42,2.665 -5.796,2.665 -4.103,0 -6.806,-2.376 -7.201,-6.299 h 1.475 c 0.361,3.131 2.486,4.969 5.761,4.967 3.783,0 5.906,-2.628 5.906,-7.381 v -2.232 c -1.658,1.944 -3.53,2.88 -5.833,2.88 -3.999,0 -7.167,-3.383 -7.167,-7.704 0,-4.357 3.206,-7.669 7.381,-7.67 2.341,0 3.889,0.792 5.618,2.88 v -2.556 h 1.438 l 0.003,14.401 z m -12.962,-7.092 c 0,3.745 2.378,6.41 5.725,6.408 3.42,0 5.904,-2.699 5.904,-6.444 0,-3.636 -2.521,-6.264 -5.94,-6.264 -3.135,0 -5.689,2.807 -5.689,6.3 z" />
      <path d="m 200.853,183.892 c 0.144,3.781 2.411,6.228 5.725,6.228 2.231,0 3.779,-1.008 5.184,-3.384 l 1.223,0.719 c -1.512,2.702 -3.672,3.997 -6.588,3.997 -4.104,0 -7.127,-3.276 -7.127,-7.74 0,-4.32 3.096,-7.669 7.127,-7.669 4.177,0 6.985,3.095 7.055,7.848 l -12.599,0.001 z m 10.944,-1.369 c -0.541,-3.096 -2.7,-5.149 -5.365,-5.149 -2.772,0.002 -5.04,2.162 -5.472,5.149 h 10.837 z" />
      <path d="m 228.212,185.115 c 0,1.692 0.146,2.556 0.469,3.241 0.541,1.043 1.909,1.763 3.385,1.763 1.44,0 2.807,-0.72 3.346,-1.763 0.325,-0.685 0.469,-1.549 0.469,-3.242 v -8.749 h 1.441 v 9.254 c 0,2.052 -0.251,3.061 -1.079,4.032 -0.936,1.115 -2.484,1.801 -4.177,1.801 -1.729,0 -3.277,-0.685 -4.213,-1.801 -0.828,-0.971 -1.079,-1.98 -1.079,-4.032 v -9.252 h 1.438 v 8.748 z" />
      <path d="m 243.982,176.365 v 2.305 c 1.187,-1.873 2.519,-2.629 4.462,-2.629 1.729,0 3.312,0.792 4.07,2.052 0.502,0.829 0.719,1.944 0.719,3.708 v 9.254 h -1.439 l -0.001,-9.252 c 0,-3.169 -1.007,-4.429 -3.526,-4.429 -2.848,0 -4.285,2.016 -4.285,6.048 v 7.633 h -1.439 v -14.689 h 1.439 z" />
      <path d="m 271.881,164.806 0.002,26.247 h -1.44 v -2.629 c -1.297,1.945 -3.312,3.024 -5.653,3.024 -4.248,0 -7.272,-3.239 -7.272,-7.811 -0.002,-4.5 2.951,-7.598 7.199,-7.598 2.413,0 4.25,0.937 5.724,2.881 v -14.115 h 1.44 z m -12.888,18.831 c 0,3.708 2.485,6.48 5.761,6.48 3.457,-10e-4 5.797,-2.701 5.797,-6.662 -10e-4,-3.564 -2.449,-6.084 -5.869,-6.084 -3.205,0.001 -5.689,2.737 -5.689,6.266 z" />
      <path d="m 289.27,166.209 10.373,22.213 10.474,-22.214 2.737,24.842 h -1.583 l -2.161,-19.298 -9.467,20.163 -9.401,-20.162 -2.084,19.297 -1.586,0.002 2.698,-24.843 z" />
      <path d="m 320.559,171.465 c 0,0.755 -0.579,1.332 -1.297,1.332 -0.758,0 -1.333,-0.576 -1.333,-1.332 0,-0.72 0.575,-1.296 1.333,-1.296 0.717,0 1.297,0.576 1.297,1.296 z m -0.613,19.585 h -1.44 v -14.688 h 1.44 v 14.688 z" />
      <path d="m 338.811,190.76 c 0,2.953 -0.396,4.538 -1.583,6.049 -1.333,1.691 -3.422,2.664 -5.8,2.664 -4.101,0 -6.803,-2.375 -7.199,-6.299 h 1.477 c 0.359,3.132 2.483,4.968 5.759,4.968 3.781,0 5.906,-2.629 5.906,-7.382 v -2.232 c -1.656,1.945 -3.528,2.881 -5.833,2.881 -3.997,0 -7.166,-3.384 -7.166,-7.705 0,-4.356 3.206,-7.668 7.382,-7.67 2.337,0 3.887,0.793 5.617,2.88 v -2.556 h 1.44 v 14.402 z m -12.962,-7.092 c 0,3.745 2.378,6.409 5.727,6.409 3.418,0 5.902,-2.7 5.902,-6.445 0,-3.636 -2.521,-6.264 -5.939,-6.264 -3.133,0 -5.69,2.808 -5.69,6.3 z" />
      <path d="m 345.435,176.36 v 1.908 c 0.791,-1.548 1.762,-2.232 3.238,-2.232 0.542,0 0.901,0.072 1.586,0.36 l -0.795,1.26 c -0.429,-0.251 -0.681,-0.324 -1.008,-0.324 -1.007,0 -2.121,0.792 -2.594,1.8 -0.359,0.864 -0.428,1.548 -0.428,4.032 v 7.885 h -1.44 V 176.36 h 1.441 z" />
      <path d="m 366.856,176.359 v 14.688 h -1.44 v -2.628 c -1.297,1.945 -3.312,3.024 -5.653,3.024 -4.25,0 -7.272,-3.239 -7.272,-7.811 0,-4.5 2.953,-7.598 7.199,-7.598 2.415,0 4.25,0.937 5.727,2.88 v -2.556 h 1.439 z m -12.889,7.273 c 0,3.708 2.484,6.48 5.76,6.48 3.458,-0.001 5.796,-2.702 5.796,-6.662 0,-3.565 -2.447,-6.084 -5.869,-6.084 -3.202,10e-4 -5.687,2.738 -5.687,6.266 z" />
      <path d="m 373.48,176.359 v 2.303 c 1.187,-1.872 2.521,-2.629 4.462,-2.629 1.729,0 3.312,0.792 4.07,2.053 0.502,0.827 0.719,1.942 0.719,3.707 v 9.252 l -1.44,0.001 v -9.253 c 0,-3.168 -1.007,-4.429 -3.528,-4.429 -2.843,0.002 -4.283,2.018 -4.283,6.051 v 7.631 h -1.44 v -14.688 h 1.44 z" />
      <path d="m 389.535,191.045 h -1.436 l -0.004,-13.356 h -1.619 v -1.332 h 1.619 V 171.1 h 1.44 v 5.257 h 2.594 v 1.331 h -2.594 v 13.357 z" />
      <path d="m 410.454,193.781 v 1.477 l -18.003,10e-4 v -1.477 l 18.003,-0.001 z" />
      <path d="m 415.133,171.459 c 0,0.755 -0.579,1.332 -1.297,1.332 -0.755,0 -1.33,-0.576 -1.33,-1.332 0,-0.719 0.575,-1.296 1.33,-1.296 0.718,0 1.297,0.577 1.297,1.296 z m -0.612,19.585 h -1.44 v -14.688 h 1.44 v 14.688 z" />
      <path d="m 421.182,176.356 v 2.304 c 1.188,-1.873 2.519,-2.63 4.462,-2.63 1.729,0 3.316,0.793 4.068,2.054 0.508,0.828 0.72,1.942 0.72,3.708 v 9.252 l -1.436,10e-4 v -9.253 c 0,-3.167 -1.011,-4.428 -3.532,-4.428 -2.843,0 -4.283,2.017 -4.283,6.049 v 7.632 h -1.439 v -14.688 h 1.44 z" />
      <path d="m 437.093,176.355 v 2.303 c 1.187,-1.872 2.521,-2.628 4.466,-2.628 1.726,0 3.312,0.791 4.066,2.052 0.504,0.828 0.722,1.944 0.722,3.708 v 9.253 h -1.44 v -9.253 c 0,-3.168 -1.011,-4.428 -3.531,-4.427 -2.843,0 -4.283,2.016 -4.283,6.048 v 7.632 h -1.44 v -14.688 h 1.44 z" />
      <path d="m 452.213,183.878 c 0.143,3.78 2.414,6.229 5.726,6.228 2.231,0 3.781,-1.008 5.184,-3.384 l 1.224,0.719 c -1.514,2.701 -3.671,3.997 -6.588,3.997 -4.106,0 -7.129,-3.276 -7.129,-7.74 0,-4.321 3.096,-7.669 7.126,-7.669 4.176,0 6.986,3.097 7.06,7.848 l -12.603,10e-4 z m 10.944,-1.367 c -0.539,-3.098 -2.696,-5.149 -5.364,-5.149 -2.77,0 -5.038,2.16 -5.473,5.149 h 10.837 z" />
      <path d="m 470.502,176.352 v 2.304 c 1.187,-1.872 2.521,-2.628 4.464,-2.628 1.728,0 3.314,0.792 4.069,2.053 0.506,0.828 0.722,1.942 0.722,3.708 v 9.251 h -1.44 v -9.251 c 0,-3.169 -1.007,-4.429 -3.532,-4.429 -2.843,0 -4.283,2.017 -4.283,6.049 v 7.633 h -1.439 v -14.688 l 1.439,-0.002 z" />
      <path d="m 494.694,183.876 c 0.146,3.78 2.415,6.229 5.726,6.229 2.231,0 3.779,-1.01 5.185,-3.386 l 1.223,0.721 c -1.509,2.699 -3.67,3.995 -6.587,3.995 -4.104,0.002 -7.129,-3.275 -7.129,-7.74 0,-4.321 3.096,-7.667 7.129,-7.669 4.177,0 6.983,3.097 7.056,7.85 h -12.603 z m 10.947,-1.368 c -0.542,-3.098 -2.7,-5.149 -5.363,-5.149 -2.773,0 -5.042,2.16 -5.474,5.149 h 10.837 z" />
      <path d="m 513.958,189.959 c 0,0.757 -0.575,1.333 -1.297,1.333 -0.718,0 -1.33,-0.612 -1.33,-1.333 0,-0.72 0.575,-1.295 1.33,-1.295 0.721,0 1.297,0.575 1.297,1.295 z" />
      <path d="m 525.586,187.295 6.908,-20.271 h 1.658 l -8.566,24.986 -8.749,-24.985 h 1.726 l 7.023,20.27 z" />
      <path d="m 539.699,189.958 c 0,0.756 -0.576,1.331 -1.297,1.331 -0.722,0.002 -1.333,-0.61 -1.333,-1.331 0,-0.721 0.576,-1.296 1.333,-1.296 0.721,0 1.297,0.575 1.297,1.296 z" />
    </g>
  </g>
</svg>